<?xml version="1.0" encoding="UTF-8" standalone="no"?><svg xmlns="http://www.w3.org/2000/svg" xmlns:xlink="http://www.w3.org/1999/xlink" contentScriptType="application/ecmascript" contentStyleType="text/css" height="583px" preserveAspectRatio="none" style="width:449px;height:583px;" version="1.1" viewBox="0 0 449 583" width="449px" zoomAndPan="magnify"><defs><filter height="300%" id="f9kl256f71kbe" width="300%" x="-1" y="-1"><feGaussianBlur result="blurOut" stdDeviation="2.0"/><feColorMatrix in="blurOut" result="blurOut2" type="matrix" values="0 0 0 0 0 0 0 0 0 0 0 0 0 0 0 0 0 0 .4 0"/><feOffset dx="4.0" dy="4.0" in="blurOut2" result="blurOut3"/><feBlend in="SourceGraphic" in2="blurOut3" mode="normal"/></filter></defs><g><!--MD5=[8413f8248b2da7966d2de021109ec289]
class users--><rect codeLine="1" fill="#FEFECE" filter="url(#f9kl256f71kbe)" height="138.6855" id="users" style="stroke:#A80036;stroke-width:1.5;" width="241" x="76" y="7"/><ellipse cx="176.75" cy="23" fill="#ADD1B2" rx="11" ry="11" style="stroke:#A80036;stroke-width:1.0;"/><path d="M180.3643,29.5 L172.6445,29.5 L172.6445,17.1069 L180.3643,17.1069 L180.3643,19.2651 L175.0933,19.2651 L175.0933,21.938 L179.8662,21.938 L179.8662,24.0962 L175.0933,24.0962 L175.0933,27.3418 L180.3643,27.3418 Z " fill="#000000"/><text fill="#000000" font-family="sans-serif" font-size="12" lengthAdjust="spacing" textLength="31" x="197.25" y="27.5352">users</text><line style="stroke:#A80036;stroke-width:1.5;" x1="77" x2="316" y1="39" y2="39"/><text fill="#000000" font-family="sans-serif" font-size="11" lengthAdjust="spacing" textLength="34" x="82" y="53.6348">id [PK]</text><line style="stroke:#A80036;stroke-width:1.0;" x1="77" x2="316" y1="59.9551" y2="59.9551"/><text fill="#000000" font-family="sans-serif" font-size="11" lengthAdjust="spacing" textLength="171" x="82" y="74.5898">email [メールアドレス（未設定）]</text><text fill="#000000" font-family="sans-serif" font-size="11" lengthAdjust="spacing" textLength="173" x="82" y="87.5449">password [パスワード（未設定）]</text><text fill="#000000" font-family="sans-serif" font-size="11" lengthAdjust="spacing" textLength="62" x="82" y="100.5">name [名前]</text><text fill="#000000" font-family="sans-serif" font-size="11" lengthAdjust="spacing" textLength="100" x="82" y="113.4551">coin [手持ちコイン]</text><text fill="#000000" font-family="sans-serif" font-size="11" lengthAdjust="spacing" textLength="137" x="82" y="126.4102">picture [プロフィール写真]</text><text fill="#000000" font-family="sans-serif" font-size="11" lengthAdjust="spacing" textLength="229" x="82" y="139.3652">life_flag [アカウントが有効かどうかのフラグ]</text><!--MD5=[400f0600dc490cab46af2e6886caefc3]
class board--><rect codeLine="11" fill="#FEFECE" filter="url(#f9kl256f71kbe)" height="99.8203" id="board" style="stroke:#A80036;stroke-width:1.5;" width="157" x="7" y="212.5"/><ellipse cx="63.75" cy="228.5" fill="#ADD1B2" rx="11" ry="11" style="stroke:#A80036;stroke-width:1.0;"/><path d="M67.3643,235 L59.6445,235 L59.6445,222.6069 L67.3643,222.6069 L67.3643,224.7651 L62.0933,224.7651 L62.0933,227.438 L66.8662,227.438 L66.8662,229.5962 L62.0933,229.5962 L62.0933,232.8418 L67.3643,232.8418 Z " fill="#000000"/><text fill="#000000" font-family="sans-serif" font-size="12" lengthAdjust="spacing" textLength="35" x="84.25" y="233.0352">board</text><line style="stroke:#A80036;stroke-width:1.5;" x1="8" x2="163" y1="244.5" y2="244.5"/><text fill="#000000" font-family="sans-serif" font-size="11" lengthAdjust="spacing" textLength="34" x="13" y="259.1348">id [PK]</text><line style="stroke:#A80036;stroke-width:1.0;" x1="8" x2="163" y1="265.4551" y2="265.4551"/><text fill="#000000" font-family="sans-serif" font-size="11" lengthAdjust="spacing" textLength="105" x="13" y="280.0898">user_id [投稿者のid]</text><text fill="#000000" font-family="sans-serif" font-size="11" lengthAdjust="spacing" textLength="145" x="13" y="293.0449">board_content [投稿の中身]</text><text fill="#000000" font-family="sans-serif" font-size="11" lengthAdjust="spacing" textLength="111" x="13" y="306">created_at [作成時間]</text><!--MD5=[bff1041a8ee8b541d27bfec8101a467c]
class bet_contents--><rect codeLine="18" fill="#FEFECE" filter="url(#f9kl256f71kbe)" height="190.5059" id="bet_contents" style="stroke:#A80036;stroke-width:1.5;" width="253" x="182" y="379"/><ellipse cx="267.75" cy="395" fill="#ADD1B2" rx="11" ry="11" style="stroke:#A80036;stroke-width:1.0;"/><path d="M271.3643,401.5 L263.6445,401.5 L263.6445,389.1069 L271.3643,389.1069 L271.3643,391.2651 L266.0933,391.2651 L266.0933,393.938 L270.8662,393.938 L270.8662,396.0962 L266.0933,396.0962 L266.0933,399.3418 L271.3643,399.3418 Z " fill="#000000"/><text fill="#000000" font-family="sans-serif" font-size="12" lengthAdjust="spacing" textLength="73" x="288.25" y="399.5352">bet_contents</text><line style="stroke:#A80036;stroke-width:1.5;" x1="183" x2="434" y1="411" y2="411"/><text fill="#000000" font-family="sans-serif" font-size="11" lengthAdjust="spacing" textLength="34" x="188" y="425.6348">id [PK]</text><line style="stroke:#A80036;stroke-width:1.0;" x1="183" x2="434" y1="431.9551" y2="431.9551"/><text fill="#000000" font-family="sans-serif" font-size="11" lengthAdjust="spacing" textLength="108" x="188" y="446.5898">title [賭けのタイトル]</text><text fill="#000000" font-family="sans-serif" font-size="11" lengthAdjust="spacing" textLength="87" x="188" y="459.5449">text [賭けの内容]</text><text fill="#000000" font-family="sans-serif" font-size="11" lengthAdjust="spacing" textLength="139" x="188" y="472.5">picture_name [写真の名前]</text><text fill="#000000" font-family="sans-serif" font-size="11" lengthAdjust="spacing" textLength="142" x="188" y="485.4551">bet_genre [賭けのジャンル]</text><text fill="#000000" font-family="sans-serif" font-size="11" lengthAdjust="spacing" textLength="209" x="188" y="498.4102">bet_content_name_A [賭ける物の名前A]</text><text fill="#000000" font-family="sans-serif" font-size="11" lengthAdjust="spacing" textLength="205" x="188" y="511.3652">bet_content_name_B [賭ける物の名前B]</text><text fill="#000000" font-family="sans-serif" font-size="11" lengthAdjust="spacing" textLength="241" x="188" y="524.3203">total_bet_coin_A [Aに賭けられたコインの総額]</text><text fill="#000000" font-family="sans-serif" font-size="11" lengthAdjust="spacing" textLength="237" x="188" y="537.2754">total_bet_coin_B [Bに賭けられたコインの総額]</text><text fill="#000000" font-family="sans-serif" font-size="11" lengthAdjust="spacing" textLength="121" x="188" y="550.2305">expiration [賭けの期限]</text><text fill="#000000" font-family="sans-serif" font-size="11" lengthAdjust="spacing" textLength="99" x="188" y="563.1855">status [賭けの状況]</text><!--MD5=[f25e3ed32ceec13e2adb948d8a11323c]
class bet_coin--><rect codeLine="32" fill="#FEFECE" filter="url(#f9kl256f71kbe)" height="112.7754" id="bet_coin" style="stroke:#A80036;stroke-width:1.5;" width="219" x="199" y="206"/><ellipse cx="280.25" cy="222" fill="#ADD1B2" rx="11" ry="11" style="stroke:#A80036;stroke-width:1.0;"/><path d="M283.8643,228.5 L276.1445,228.5 L276.1445,216.1069 L283.8643,216.1069 L283.8643,218.2651 L278.5933,218.2651 L278.5933,220.938 L283.3662,220.938 L283.3662,223.0962 L278.5933,223.0962 L278.5933,226.3418 L283.8643,226.3418 Z " fill="#000000"/><text fill="#000000" font-family="sans-serif" font-size="12" lengthAdjust="spacing" textLength="48" x="300.75" y="226.5352">bet_coin</text><line style="stroke:#A80036;stroke-width:1.5;" x1="200" x2="417" y1="238" y2="238"/><text fill="#000000" font-family="sans-serif" font-size="11" lengthAdjust="spacing" textLength="34" x="205" y="252.6348">id [PK]</text><line style="stroke:#A80036;stroke-width:1.0;" x1="200" x2="417" y1="258.9551" y2="258.9551"/><text fill="#000000" font-family="sans-serif" font-size="11" lengthAdjust="spacing" textLength="172" x="205" y="273.5898">user_id [賭けをしたユーザーのID]</text><text fill="#000000" font-family="sans-serif" font-size="11" lengthAdjust="spacing" textLength="207" x="205" y="286.5449">bet_contents_id [賭けたコンテンツのID]</text><text fill="#000000" font-family="sans-serif" font-size="11" lengthAdjust="spacing" textLength="86" x="205" y="299.5">which [賭けた方]</text><text fill="#000000" font-family="sans-serif" font-size="11" lengthAdjust="spacing" textLength="192" x="205" y="312.4551">bet_coin_amount [賭けたコインの額]</text><!--MD5=[d3583356520f1faf69b1a1ee83764e0b]
link users to board--><path codeLine="40" d="M150.92,153.06 C140.34,170.6 129.25,188.97 119.28,205.5 " fill="none" id="users-board" style="stroke:#A80036;stroke-width:1.0;"/><line style="stroke:#A80036;stroke-width:1.0;" x1="119.2128" x2="120.2174" y1="205.6102" y2="215.5596"/><line style="stroke:#A80036;stroke-width:1.0;" x1="119.2128" x2="109.9426" y1="205.6102" y2="209.3604"/><line style="stroke:#A80036;stroke-width:1.0;" x1="119.2128" x2="115.08" y1="205.6102" y2="212.46"/><ellipse cx="122.3124" cy="200.4728" fill="none" rx="4" ry="4" style="stroke:#A80036;stroke-width:1.0;"/><line style="stroke:#A80036;stroke-width:1.0;" x1="149.6787" x2="156.5285" y1="147.3685" y2="151.5013"/><line style="stroke:#A80036;stroke-width:1.0;" x1="148.1289" x2="154.9787" y1="149.9372" y2="154.07"/><line style="stroke:#A80036;stroke-width:1.0;" x1="151.0372" x2="155.17" y1="152.8598" y2="146.01"/><!--MD5=[9a7973be613f66df23044b58d5684c5f]
link users to bet_coin--><path codeLine="41" d="M242.46,153 C251.71,168.2 261.33,184.01 270.28,198.72 " fill="none" id="users-bet_coin" style="stroke:#A80036;stroke-width:1.0;"/><line style="stroke:#A80036;stroke-width:1.0;" x1="270.46" x2="281.4533" y1="199.0067" y2="205.84"/><line style="stroke:#A80036;stroke-width:1.0;" x1="270.46" x2="267.7867" y1="199.0067" y2="205.84"/><line style="stroke:#A80036;stroke-width:1.0;" x1="270.46" x2="274.62" y1="199.0067" y2="205.84"/><line style="stroke:#A80036;stroke-width:1.0;" x1="236.8583" x2="243.6954" y1="151.5054" y2="147.3517"/><line style="stroke:#A80036;stroke-width:1.0;" x1="238.4159" x2="245.2531" y1="154.0694" y2="149.9157"/><line style="stroke:#A80036;stroke-width:1.0;" x1="242.3537" x2="238.2" y1="152.8472" y2="146.01"/><!--MD5=[b36c6639363c472c72a0c894f9510728]
link bet_coin to bet_contents--><path codeLine="42" d="M308.5,326.67 C308.5,340.94 308.5,356.45 308.5,371.86 " fill="none" id="bet_coin-bet_contents" style="stroke:#A80036;stroke-width:1.0;"/><line style="stroke:#A80036;stroke-width:1.0;" x1="312.5" x2="304.5" y1="374.93" y2="374.93"/><line style="stroke:#A80036;stroke-width:1.0;" x1="312.5" x2="304.5" y1="371.93" y2="371.93"/><line style="stroke:#A80036;stroke-width:1.0;" x1="308.5" x2="308.5" y1="370.93" y2="378.93"/><line style="stroke:#A80036;stroke-width:1.0;" x1="304.5" x2="312.5" y1="323.22" y2="323.22"/><line style="stroke:#A80036;stroke-width:1.0;" x1="304.5" x2="312.5" y1="326.22" y2="326.22"/><line style="stroke:#A80036;stroke-width:1.0;" x1="308.5" x2="308.5" y1="327.22" y2="319.22"/><!--MD5=[9a35e0437dee97744aca386a2e55c7a6]
@startuml ER
entity "users" {
  id [PK]
  - -
  email [メールアドレス（未設定）]
  password [パスワード（未設定）]
  name [名前]
  coin [手持ちコイン]
  picture [プロフィール写真]
  life_flag [アカウントが有効かどうかのフラグ]
}
entity "board" {
  id [PK]
  - -
  user_id [投稿者のid]
  board_content [投稿の中身]
  created_at [作成時間]
}
entity "bet_contents" {
  id [PK]
  - -
  title [賭けのタイトル]
  text [賭けの内容]
  picture_name [写真の名前]
  bet_genre [賭けのジャンル]
  bet_content_name_A [賭ける物の名前A]
  bet_content_name_B [賭ける物の名前B]
  total_bet_coin_A [Aに賭けられたコインの総額]
  total_bet_coin_B [Bに賭けられたコインの総額]
  expiration [賭けの期限]
  status [賭けの状況]
}
entity "bet_coin" {
  id [PK]
  - -
  user_id [賭けをしたユーザーのID]
  bet_contents_id [賭けたコンテンツのID]
  which [賭けた方]
  bet_coin_amount [賭けたコインの額]
}
users ||- -o{ board
users ||- -{ bet_coin
bet_coin ||- -|| bet_contents
@enduml

PlantUML version 1.2021.00(Sun Jan 10 19:25:05 JST 2021)
(GPL source distribution)
Java Runtime: Java(TM) SE Runtime Environment
JVM: Java HotSpot(TM) 64-Bit Server VM
Default Encoding: UTF-8
Language: ja
Country: JP
--></g></svg>